<svg xmlns="http://www.w3.org/2000/svg" viewBox="0 0 35 20" width="35" height="20"><path d="M34.769 9.639a20.743 21.612 0 0 0-34.538 0L0 10l.231.361a20.743 21.612 0 0 0 34.538 0L35 10zM17.5 18.705A19.498 20.315 0 0 1 1.5 10a19.498 20.315 0 0 1 16-8.704A19.5 20.317 0 0 1 33.502 10 19.5 20.317 0 0 1 17.5 18.704zm0 0"/><path d="M17.511 1.946c-4.101 0-7.44 3.489-7.44 7.778s3.337 7.778 7.44 7.778 7.443-3.49 7.443-7.778c0-4.29-3.34-7.778-7.442-7.778zm0 14.258c-3.417 0-6.2-2.907-6.2-6.482 0-3.572 2.782-6.48 6.201-6.48 3.42 0 6.201 2.908 6.201 6.482 0 3.573-2.782 6.481-6.2 6.481zm0 0"/><path d="M17.511 7.13c-1.366 0-2.48 1.164-2.48 2.594 0 1.429 1.113 2.592 2.481 2.592 1.368 0 2.48-1.164 2.48-2.592a2.487 2.591 0 0 0-2.48-2.593zm0 3.889a1.244 1.296 0 1 1 0-2.592 1.244 1.296 0 1 1 0 2.592zm0 0"/><path d="M18.132 5.186a.621.647 0 0 0-.62-.648c-2.735 0-4.96 2.326-4.96 5.186a.621.647 0 1 0 1.24 0 3.73 3.887 0 0 1 3.72-3.89.622.648 0 0 0 .62-.648zm0 0"/></svg>