<svg xmlns="http://www.w3.org/2000/svg" xmlns:xlink="http://www.w3.org/1999/xlink" height="21" width="11" viewBox="0 0 11 21"><g transform="matrix(.9644 0 0 .99663 -.23 -.899)" fill="#9a9c9f"><defs><path id="a" d="M.239.902h11.523V22H.239z"/></defs><clipPath id="b"><use height="100%" width="100%" xlink:href="#a" overflow="visible"/></clipPath><path d="M11.216.879L8.48.875c-3.074 0-5.06 2.038-5.06 5.192v2.394H.668a.43.43 0 0 0-.43.43v3.469c0 .237.193.43.43.43h2.751v8.753c0 .237.193.43.431.43h3.588a.43.43 0 0 0 .431-.43V12.79h3.216a.43.43 0 0 0 .43-.43l.002-3.469a.43.43 0 0 0-.43-.429H7.869v-2.03c0-.975.233-1.471 1.503-1.471l1.843-.001a.43.43 0 0 0 .43-.43V1.31a.431.431 0 0 0-.429-.431zm0 0"/></g></svg>
