<svg xmlns="http://www.w3.org/2000/svg" viewBox="190 384 44 34" width="44" height="34"><path d="M233.185 400.732a.804.819 0 0 0 .815-.81v-7.557a.804.819 0 0 0-.815-.808h-2.444v-2.428a.783.797 0 0 0-.202-.533l-3.802-4.317a.825.84 0 0 0-1.227 0l-3.803 4.317a.783.797 0 0 0-.201.533v2.428h-4.889v-2.428a.783.797 0 0 0-.2-.533l-3.804-4.317a.825.84 0 0 0-1.226 0l-3.804 4.317a.783.797 0 0 0-.2.533v2.428h-4.889v-2.428a.783.797 0 0 0-.201-.533l-3.803-4.317a.825.84 0 0 0-1.227 0l-3.802 4.317a.783.797 0 0 0-.202.533v2.428h-2.444a.804.819 0 0 0-.815.81v7.555c0 .448.364.81.815.81h2.444v2.697h-2.444a.804.819 0 0 0-.815.81v7.556c0 .447.364.809.815.809h2.444v3.776h-1.358a.804.819 0 0 0-.815.81c0 .448.364.81.815.81H232.1a.804.819 0 0 0 .815-.81.804.819 0 0 0-.815-.81h-1.358v-3.776h2.444a.804.819 0 0 0 .815-.81v-7.556a.804.819 0 0 0-.815-.81h-2.444v-2.696zm-.815-7.557v5.937h-1.629v-5.935zm-15.753 11.873h4.889v5.936h-4.889zm4.889-1.62h-4.889v-2.696h4.889zm-4.889 9.176h4.889v3.776h-4.889zm4.889-19.427v5.935h-4.889v-5.935zm-19.012 11.871h4.889v5.936h-4.889zm4.889-1.62h-4.889v-2.696h4.889zm-4.889 9.176h4.889v3.776h-4.889zm4.889-19.427v5.935h-4.889v-5.935zm-15.753 5.935v-5.935h1.629v5.935zm0 11.872v-5.936h1.629v5.936zm3.259 5.396v-26.948l2.989-3.392 2.987 3.392v26.948zm14.124 0v-26.948L212 386.04l2.989 3.392v26.948zm14.122 0v-26.948l2.989-3.392 2.987 3.392v26.948zm9.235-11.332v5.936h-1.629v-5.936z"/><path d="M197.876 394.377a1.344 1.37 0 0 0-1.358 1.35c0 .744.61 1.35 1.358 1.35a1.344 1.37 0 0 0 1.36-1.35 1.299 1.323 0 0 0-.398-.954 1.369 1.394 0 0 0-.962-.396zm0 12.952a1.344 1.37 0 0 0-1.358 1.35c0 .744.61 1.35 1.358 1.35a1.341 1.366 0 0 0 1.358-1.35 1.299 1.323 0 0 0-.398-.954 1.361 1.386 0 0 0-.96-.396zM212 394.377a1.344 1.37 0 0 0-1.358 1.35c0 .744.608 1.35 1.358 1.35a1.344 1.37 0 0 0 1.358-1.35 1.299 1.323 0 0 0-.398-.954 1.366 1.39 0 0 0-.96-.396zm0 12.952a1.344 1.37 0 0 0-1.358 1.35c0 .744.608 1.35 1.358 1.35a1.341 1.366 0 0 0 1.356-1.35 1.299 1.323 0 0 0-.397-.954 1.361 1.386 0 0 0-.959-.396zm14.124-12.952a1.344 1.37 0 0 0-1.36 1.35c0 .744.61 1.35 1.36 1.35a1.344 1.37 0 0 0 1.358-1.35 1.299 1.323 0 0 0-.398-.954 1.366 1.39 0 0 0-.96-.396zm0 12.952a1.344 1.37 0 0 0-1.36 1.35c0 .744.61 1.35 1.36 1.35a1.344 1.37 0 0 0 1.358-1.35 1.299 1.323 0 0 0-.398-.954 1.366 1.39 0 0 0-.96-.396z"/></svg>