<svg xmlns="http://www.w3.org/2000/svg" viewBox="0 0 42 30" width="42" height="30"><path d="M0 28.75h7.795V30H0zM7.795 1.267H4.519V0H3.227v1.268H0v1.25h7.795zm26.41 27.483H42V30h-7.795zM38.72 1.267V0h-1.29v1.268h-3.227v1.25H42v-1.25zm0 0"/><path d="M34.205 26.875v1.25h7.743v-1.25h-.646v-22.5h.645v-1.25h-7.744v1.251h.645v3.125h-1.884V5h-1.291v2.5h-3.227V3.75h-1.29V7.5H23.93V1.875h-1.292V7.5h-3.227V1.875h-1.29V7.5h-3.226V3.75h-1.29V7.5h-3.229V5h-1.29v2.5H7.099V4.375h.645v-1.25H0v1.251h.645v22.499H0v1.25h7.745v-1.25H7.1v-1.25h1.987v3.75h23.878v-3.75h1.884v1.25zm1.936-22.5h3.871v17.5h-3.871zm0 18.75h3.871v3.75h-3.871zm-30.333 3.75H1.937v-3.75h3.871zm0-5H1.937v-17.5h3.871zm3.278 2.5H7.099V8.75h1.987zm4.518 3.75h-3.228v-2.5h3.227zm0-3.75h-3.228V8.75h3.227zm4.518 3.75h-3.227v-2.5h3.227zm0-3.75h-3.227V16.4c.462.3 1.017.475 1.613.475.597 0 1.152-.175 1.614-.475zm-1.614-8.75c-.889 0-1.613-.701-1.613-1.563s.724-1.562 1.613-1.562c.89 0 1.614.7 1.614 1.563 0 .862-.724 1.562-1.614 1.562zm1.614-3.9a2.98 3.016 0 0 0-1.614-.475c-.596 0-1.15.175-1.613.475V8.75h3.227zm4.517 16.4h-3.226v-2.5h3.226zm0-3.75h-3.226V16.4c.46.3 1.018.475 1.613.475.597 0 1.151-.175 1.613-.475zm-1.614-8.75c-.89 0-1.614-.701-1.614-1.563s.724-1.562 1.614-1.562c.89 0 1.613.7 1.613 1.563.001.862-.723 1.562-1.613 1.562zm1.614-3.9a2.984 3.02 0 0 0-1.613-.475c-.595 0-1.151.175-1.613.475V8.75h3.226zm4.518 16.4H23.93v-2.5h3.227zm0-3.75H23.93V16.4c.462.3 1.017.475 1.613.475.597 0 1.15-.175 1.614-.475zm-1.614-8.75c-.889 0-1.613-.701-1.613-1.563s.724-1.562 1.613-1.562c.89 0 1.614.7 1.614 1.563 0 .862-.724 1.562-1.614 1.562zm1.614-3.9a2.984 3.02 0 0 0-1.614-.475c-.596 0-1.15.175-1.613.475V8.75h3.227zm4.516 16.4h-3.227v-2.5h3.227zm0-3.75h-3.227V8.75h3.227zm1.29 0V8.75h1.883v15.625zm0 0"/></svg>