<svg xmlns="http://www.w3.org/2000/svg" height="18" width="28" viewBox="193 388 27.999998 18"><g fill="#9a9c9f"><path d="M210.463 394.632H201.4v4.263h4.558c-.613 1.768-2.098 2.842-3.995 2.842-2.536 0-4.763-2.215-4.763-4.74 0-2.521 2.225-4.734 4.763-4.734 1.213 0 2.238.394 2.965 1.137l.33.338 3.125-3.173-.34-.334c-1.479-1.46-3.582-2.231-6.08-2.231-5.025 0-8.963 3.953-8.963 8.998 0 5.047 3.938 9.002 8.963 9.002 4.633 0 7.924-2.759 8.59-7.2.087-.576.13-1.182.132-1.802 0-.681-.057-1.42-.154-1.975zM212.133 394.632v3.315h2.8v2.842h3.27v-2.842H221v-3.318h-2.798v-2.84h-3.269v2.843z"/></g></svg>