<svg xmlns="http://www.w3.org/2000/svg" height="24" width="24" viewBox="0 0 24 24"><g fill="#9a9c9f"><path d="M18.46 6.463a.926.926 0 0 1-.923-.924V3.691c0-.508.415-.924.924-.924h1.848c.504 0 .918.416.918.924V5.54a.924.924 0 0 1-.918.924zm0 0M11.997 8.483a3.49 3.49 0 0 0-1.82.518c.167-.05.338-.086.522-.086.988 0 1.786.798 1.786 1.783 0 .984-.798 1.786-1.786 1.786a1.782 1.782 0 0 1-1.783-1.786c0-.184.036-.355.086-.522a3.486 3.486 0 0 0-.519 1.821 3.52 3.52 0 1 0 7.04 0 3.519 3.519 0 0 0-3.526-3.514zm0 0"/><path d="M11.997 6.463a5.536 5.536 0 1 1 0 11.074 5.536 5.536 0 0 1-5.534-5.54 5.535 5.535 0 0 1 5.534-5.534m0-1.848c-4.07 0-7.382 3.312-7.382 7.382 0 4.076 3.312 7.388 7.382 7.388a7.393 7.393 0 0 0 7.388-7.388c0-4.07-3.312-7.382-7.388-7.382zm0 0"/><path d="M19.496 0H4.497A4.498 4.498 0 0 0 0 4.497v15A4.5 4.5 0 0 0 4.497 24h15A4.5 4.5 0 0 0 24 19.497v-15A4.5 4.5 0 0 0 19.496 0zm2.656 8.306h-6.035a5.5 5.5 0 0 1 1.419 3.691 5.537 5.537 0 1 1-11.074 0c0-1.419.536-2.708 1.415-3.691H1.848V4.497c0-1.46 1.19-2.649 2.65-2.649h14.998a2.655 2.655 0 0 1 2.655 2.65v3.808zm0 0"/></g></svg>