<svg xmlns="http://www.w3.org/2000/svg" viewBox="0 0 33 32.999996" width="33" height="33"><g fill="#000002"><path d="M31.5 10.123a1.65 1.65 0 0 0-.54.095V1.617C30.96.726 30.219 0 29.305 0H3.7C2.782 0 2.04.724 2.04 1.617v8.598a1.695 1.695 0 0 0-.54-.09c-.722 0-1.5.531-1.5 1.695v18.92C0 31.985 1.041 33 2.319 33h28.362C31.959 33 33 31.986 33 30.738v-18.92c.001-1.164-.777-1.695-1.5-1.695zM4.029 1.94h24.943v9.642l-12.03 9.04a.772.772 0 0 1-.442.124.762.762 0 0 1-.444-.125L3.993 11.554a.937.937 0 0 0 .034-.258V1.94zm26.983 28.799a.331.331 0 0 1-.331.324H2.319a.331.331 0 0 1-.33-.324V12.495l12.853 9.66c.453.34 1.041.528 1.658.528.616 0 1.204-.188 1.657-.528l12.855-9.66zm0 0"/><path d="M9.567 6.328h4.353a.983.983 0 0 0 .994-.969.981.981 0 0 0-.994-.97H9.567a.982.982 0 0 0-.995.97c0 .534.446.97.995.97zm0 3.906h13.39c.551 0 .995-.435.995-.97a.981.981 0 0 0-.995-.969H9.567a.982.982 0 0 0-.995.969c0 .535.446.97.995.97zm0 3.906h13.39c.551 0 .995-.433.995-.969a.981.981 0 0 0-.995-.969H9.567a.982.982 0 0 0-.995.97c0 .535.446.968.995.968zm0 0"/></g></svg>