<svg xmlns="http://www.w3.org/2000/svg" viewBox="0 0 35.000002 36" width="35" height="36"><path d="M9.55 6.017a1.724 1.716 0 0 0 1.617 1.18h4.403c.727 0 1.378-.474 1.618-1.18.231-.677.952-2.186 1.513-2.665a1.804 1.804 0 0 0 .601-1.706A1.704 1.697 0 0 0 18.161.337c-1.78-.598-3.356-.396-4.563.58a.553.55 0 0 1-.72 0C11.672-.06 10.096-.262 8.316.335a1.708 1.7 0 0 0-1.144 1.31 1.82 1.812 0 0 0 .602 1.707c.634.54 1.606 2.16 1.776 2.664zM8.336 1.876a.512.51 0 0 1 .352-.399c.55-.185 1.065-.278 1.54-.278a2.94 2.926 0 0 1 1.91.655 1.725 1.718 0 0 0 2.201 0c.891-.72 2.049-.846 3.449-.377.256.085.33.286.353.399a.595.592 0 0 1-.205.558c-.907.778-1.715 2.749-1.867 3.194a.532.53 0 0 1-.498.371h-4.4a.533.53 0 0 1-.499-.371c-.248-.726-1.347-2.517-2.131-3.194a.59.588 0 0 1-.205-.558zM18.406 8.4a.6.597 0 0 0-.593-.6.574.571 0 0 0-.295.092.541.539 0 0 0-.295-.093h-7.112a.6.597 0 0 0-.592.6c0 .332.264.601.592.601h7.112v.6h-6.52a.595.595 0 0 0-.592.597c0 .334.267.6.593.6h7.066a2.901 2.888 0 0 0 1.883.705c.793 0 1.537-.312 2.095-.88a.608.605 0 0 0 0-.847.583.58 0 0 0-.836 0c-.67.677-1.832.68-2.506.009zm0 0"/><g transform="matrix(1.21737 0 0 1.2327 -.968 -.981)"><defs><path d="M.796.188H30v29.813H.796z" id="a"/></defs><path d="M11.049 13.452c-3.121 0-6.814 3.957-6.814 7.301 0 .268.219.484.487.484a.485.485 0 0 0 .487-.484c0-2.781 3.275-6.329 5.84-6.329a.486.486 0 1 0 0-.972zm0 0"/><path d="M24.679 16.37c-.504 0-1.101.031-1.704.1a9.582 9.582 0 0 0-2.61-3.068l-3.506-2.384c-.58-.445-1.495-.975-2.555-.975H10.52c-.936 0-1.858.318-2.581.886l-3.444 2.51C.904 16.263-.232 21.21 1.793 25.203c.737 1.452 1.968 3.208 3.651 3.323.13.01.266.014.399.014h9.471A3.89 3.89 0 0 0 18.35 30a3.892 3.892 0 0 0 3.329-1.882c.87.268 1.935.423 3 .423 2.341 0 4.867-.743 4.867-1.949v-2.676h-.04a.825.825 0 0 0 .04-.243v-5.599c0-1.345-3.061-1.704-4.867-1.704zm3.855 1.699c-.01.012-.017.022-.031.033a.744.744 0 0 1-.069.047 1.76 1.76 0 0 1-.112.062c-.035.019-.071.035-.114.055-.05.024-.11.045-.172.069-.05.019-.1.038-.156.057l-.235.069c-.064.016-.128.036-.2.055a13.527 13.527 0 0 1-.537.111c-.116.022-.247.038-.375.055-.088.012-.171.026-.266.038-.152.016-.321.029-.489.04-.086.007-.164.016-.252.021a15.061 15.061 0 0 1-1.698 0c-.088-.005-.166-.014-.252-.021a14.926 14.926 0 0 1-.489-.04c-.096-.012-.178-.026-.266-.038a6.235 6.235 0 0 1-.375-.055c-.086-.014-.159-.03-.238-.047a13.527 13.527 0 0 1-.299-.064c-.071-.019-.135-.036-.2-.055-.081-.024-.164-.047-.235-.069-.057-.019-.106-.038-.156-.057-.062-.024-.122-.045-.172-.069a1.754 1.754 0 0 1-.295-.164.411.411 0 0 1-.029-.031l.016-.014a.546.546 0 0 1 .069-.047c.038-.026.088-.055.145-.083l.1-.047.128-.052.171-.062.133-.043c.11-.033.228-.066.359-.097.061-.015.131-.029.197-.043.078-.017.162-.033.247-.048l.299-.05a13.27 13.27 0 0 1 1.99-.14c2.298-.001 3.587.474 3.858.724zm-7.422 4.005l.135.055c.086.033.172.064.262.096l.142.047c.102.03.207.061.316.09l.111.031c.148.035.3.071.454.1.03.007.066.012.097.019.124.021.249.043.378.062l.164.024c.11.014.221.029.33.038l.176.019c.114.009.231.016.347.024.05.002.102.007.155.009.166.007.332.012.496.012.166 0 .333-.005.499-.012l.157-.009c.114-.007.231-.015.343-.024.061-.005.121-.012.181-.019.109-.009.218-.024.326-.038.057-.007.114-.015.169-.024.126-.017.249-.038.371-.062.036-.007.072-.012.105-.019.155-.031.304-.065.451-.1.041-.01.078-.021.119-.033.107-.029.209-.057.311-.088a6.19 6.19 0 0 0 .405-.143c.045-.019.09-.035.133-.055.088-.035.172-.076.252-.116.026-.012.055-.021.078-.036l.002 1.716c-.114.276-1.371.893-3.355.994-.178.004-.352.014-.545.014-1.072 0-2.129-.164-2.94-.454a3.559 3.559 0 0 0-.417-.597c-.019-.024-.04-.045-.061-.069a2.682 2.682 0 0 0-.186-.197c-.033-.033-.069-.062-.102-.095-.057-.05-.111-.102-.171-.15a.206.206 0 0 0-.016-.015v-1.146l.08.036c.081.041.162.079.248.115zm-6.43 5.492H5.844c-.112 0-.223-.005-.335-.012-.955-.064-1.968-1.055-2.847-2.79-1.816-3.581-.791-8.021 2.422-10.548l3.444-2.51a3.243 3.243 0 0 1 1.991-.689h3.786c.787 0 1.502.42 1.985.789l3.506 2.381a8.608 8.608 0 0 1 2.162 2.436c-.615.126-1.212.321-1.621.604l-.033.024a1.867 1.867 0 0 0-.171.142.52.52 0 0 0-.059.064.786.786 0 0 0-.169.248.78.78 0 0 0-.095.368v4.426a3.556 3.556 0 0 0-.506-.164l-.069-.019a3.803 3.803 0 0 0-.523-.086c-.019-.002-.04-.002-.059-.002-.1-.009-.2-.016-.302-.016-.055 0-.105.007-.159.01-.041 0-.081.002-.124.004a4.487 4.487 0 0 0-.511.067c-.002.002-.005.002-.01.002-.012.002-.026.009-.038.012a3.948 3.948 0 0 0-.447.128l-.156.057c-.143.06-.285.124-.421.197-.05.029-.1.06-.147.091a3.624 3.624 0 0 0-.278.185c-.052.038-.105.076-.157.117a3.374 3.374 0 0 0-.453.439 3.914 3.914 0 0 0-.209.254c-.035.047-.074.093-.107.141a3.46 3.46 0 0 0-.308.554c-.057.119-.107.24-.15.366-.012.036-.029.072-.038.107a3.385 3.385 0 0 0-.116.492l-.017.064c-.002.026-.002.055-.007.081a3.991 3.991 0 0 0-.029.347c-.002.043-.007.083-.007.126l-.002.055c0 .076.007.152.012.228.016.42.082.843.21 1.23zm3.668 1.459c-1.6 0-2.9-1.29-2.919-2.885l.002-.114c.002-.052.004-.107.009-.159.002-.045.007-.088.015-.133.004-.045.012-.09.019-.136.024-.126.05-.249.09-.371.002-.014.01-.026.012-.038a3.14 3.14 0 0 1 .163-.39 3.005 3.005 0 0 1 1.179-1.238c.002 0 .002-.002.005-.002a2.65 2.65 0 0 1 .357-.169l.095-.035c.107-.038.218-.071.33-.095.016-.005.031-.01.047-.012.14-.029.28-.045.42-.052.029-.002.055-.005.081-.005.145-.004.288 0 .428.017l.024.002c.15.019.298.05.442.09l.007.002a3.029 3.029 0 0 1 .817.378l.019.014c.016.012.033.026.05.036.081.06.157.121.233.186l.052.05c.074.069.145.14.212.216l.021.021a2.923 2.923 0 0 1 .466.741c.038.086.071.171.1.259 0 .005.005.012.005.019.029.088.052.176.071.266.002.007.005.014.005.021.019.09.033.181.043.271.002.01.002.017.005.024a3.006 3.006 0 0 1-.002.608c0 .015-.005.029-.005.045a3.25 3.25 0 0 1-.043.262c-.002.01-.007.019-.007.029a3.67 3.67 0 0 1-.076.276l-.005.01a2.923 2.923 0 0 1-2.767 1.991zm6.329-1.459c-.925 0-1.844-.124-2.6-.345v-.002c.048-.156.083-.321.11-.484.007-.041.015-.078.019-.119.022-.169.038-.337.038-.511a2.66 2.66 0 0 0-.038-.506 2.215 2.215 0 0 0-.026-.187c.739.135 1.597.209 2.498.209 1.162 0 2.845-.15 3.895-.613l.002 1.552c-.124.298-1.603 1.006-3.898 1.006zm0-5.842c-2.291 0-3.765-.701-3.893-.97l.002-1.587.038.015c.116.05.237.097.368.14l.021.007c.131.043.271.081.414.116.047.012.095.021.143.033.104.024.209.047.316.066.052.01.105.021.157.029.119.021.238.04.359.057l.111.019c.157.019.316.038.471.055.04.002.078.005.119.01l.357.028c.05.002.1.005.15.01l.321.014c.046.002.088.002.133.005a11.742 11.742 0 0 0 .825 0c.045-.002.09-.002.133-.005l.319-.014c.052-.005.102-.007.155-.01l.357-.028c.038-.005.076-.007.116-.012.157-.014.314-.033.471-.055.038-.005.076-.012.114-.016.121-.017.24-.036.357-.057l.157-.029c.107-.021.214-.043.318-.069a4.928 4.928 0 0 0 .563-.152l.021-.007c.126-.04.247-.088.361-.135.014-.007.029-.012.043-.017l.002 1.552c-.125.302-1.604 1.007-3.899 1.007zm0 0"/></g></svg>