<svg xmlns="http://www.w3.org/2000/svg" xmlns:xlink="http://www.w3.org/1999/xlink" height="16" width="29" viewBox="0 0 29 16"><g transform="matrix(1.01724 0 0 .9915 .52 -.036)" fill="#9a9c9f"><path d="M24.027 10.296c.946.924 1.944 1.792 2.792 2.809.375.451.73.918 1.001 1.442.385.745.036 1.565-.632 1.61l-4.153-.002c-1.072.089-1.926-.342-2.645-1.074-.575-.586-1.108-1.209-1.66-1.815a3.941 3.941 0 0 0-.748-.664c-.567-.368-1.059-.256-1.383.336-.33.602-.405 1.267-.437 1.938-.044.978-.34 1.235-1.322 1.28-2.1.099-4.092-.219-5.944-1.278-1.632-.934-2.898-2.252-3.999-3.744-2.145-2.906-3.787-6.1-5.263-9.382C-.7 1.011-.457.614.359.6 1.714.574 3.069.576 4.425.598c.551.008.915.324 1.128.844.733 1.803 1.63 3.517 2.756 5.107.3.423.606.846 1.041 1.144.482.33.848.22 1.075-.316.144-.34.207-.707.239-1.071.107-1.254.121-2.505-.067-3.754-.116-.78-.555-1.284-1.333-1.432-.396-.075-.337-.223-.144-.45.333-.391.648-.634 1.273-.634h4.694c.739.146.903.478 1.004 1.221l.004 5.214c-.008.288.144 1.142.662 1.333.415.135.688-.197.937-.46 1.124-1.193 1.926-2.603 2.643-4.062a26.56 26.56 0 0 0 .856-1.975c.197-.494.505-.737 1.061-.727l4.518.004c.134 0 .269.002.399.024.762.13.97.457.735 1.201-.37 1.166-1.091 2.138-1.796 3.115-.753 1.042-1.559 2.049-2.306 3.098-.685.96-.63 1.442.223 2.274zm0 0"/></g></svg>
