<svg xmlns="http://www.w3.org/2000/svg" height="30.069" width="44.731" viewBox="0 0 44.731445 30.06905"><g fill="#fff"><path d="M0 26.523h15.527v1.79H0zM29.32 26.523h15.411v1.79h-15.41z"/></g><g fill="#d52029"><path d="M15.527 3.49V1.754H0v1.733h3.2v6.107a18.7 18.7 0 0 0-2.148-.51.86.86 0 0 0-.783.282.866.866 0 0 0-.269.625v13.762c0 .478.389.866.867.866h13.762a.865.865 0 0 0 .858-.779.865.865 0 0 0 .02-.178c.002-2.82-.772-5.35-2.301-7.521-1.7-2.409-4.264-4.331-7.618-5.71-.223-.09-.44-.174-.654-.255V3.489zm-7.57 10.098c1.723 1.093 3.086 2.399 4.048 3.875 1.054 1.62 1.626 3.403 1.743 5.424H1.733V11c1.292.315 3.842 1.074 6.223 2.588zM44.731 3.49V1.754h-15.37v1.733h10.372v2.727l-9.837 2.878c-.021.005-.039.013-.059.02l.002.006c-.322.118-.52.439-.52.822 0 .381.196.702.515.82.021.008.04.018.063.024.015.004.03.01.047.012l.131.023c.386.071 3.865.746 7.042 2.768 1.724 1.093 3.085 2.398 4.05 3.874 1.053 1.621 1.626 3.403 1.743 5.424h-6.99c-.037-.005-.073-.01-.11-.01-.039 0-.075.005-.111.01h-6.15c-.08 0-.15.014-.217.033v1.667a.75.75 0 0 0 .217.032H43.79c.46 0 .834-.357.865-.808a.907.907 0 0 0 .012-.149c.003-2.82-.771-5.35-2.302-7.521-1.698-2.409-4.261-4.33-7.616-5.71a24.151 24.151 0 0 0-1.44-.536l7.462-2.184a.818.818 0 0 0 .177-.056l.012-.007a.795.795 0 0 0 .134-.076c.012-.008.022-.019.034-.027a.8.8 0 0 0 .093-.08c.012-.012.022-.027.033-.04a.788.788 0 0 0 .07-.09c.011-.016.018-.034.027-.05a.899.899 0 0 0 .05-.097c.01-.024.015-.048.023-.072.009-.03.019-.057.026-.087a.902.902 0 0 0 .012-.118c0-.017.004-.033.004-.05v-.003-3.368z"/></g><g fill="#fff"><g transform="matrix(.995 0 0 .995 0 -3.541)"><circle r=".868" cy="13.98" cx="19.634"/><circle r=".868" cy="23.358" cx="19.634"/></g><path d="M18.127 11.281h2.818v.638h-2.818zM18.127 18.15h2.818v.639h-2.818zM18.631 12.032h1.81v6.004h-1.81z"/><g><g transform="matrix(.995 0 0 .995 0 -3.541)"><circle r=".868" cy="13.98" cx="25.57"/><circle r=".868" cy="23.358" cx="25.57"/></g><path d="M24.033 11.281h2.818v.638h-2.818zM24.033 18.15h2.818v.639h-2.818zM24.538 12.032h1.81v6.004h-1.81z"/></g></g><path fill="#d52029" d="M22.22 0h.539v30.07h-.54z"/></svg>