<svg xmlns="http://www.w3.org/2000/svg" height="31.58" width="46.979" viewBox="0 0 46.979256 31.580057"><g fill="#262626"><path d="M0 27.856h16.307v1.88H0zM30.794 27.856H46.98v1.88H30.794z"/></g><g fill="#d52029"><path d="M16.307 3.664v-1.82H0v1.82h3.36v6.413a19.64 19.64 0 0 0-2.255-.536.904.904 0 0 0-.822.296.906.906 0 0 0-.283.656V24.947c0 .502.409.91.91.91h14.454c.471 0 .854-.36.902-.819a.908.908 0 0 0 .02-.187c.002-2.962-.81-5.62-2.417-7.899-1.786-2.53-4.478-4.549-8-5.996a24.886 24.886 0 0 0-.687-.269V3.664zM8.356 14.27c1.81 1.148 3.241 2.52 4.252 4.07 1.108 1.701 1.708 3.574 1.83 5.696H1.82V11.553c1.357.33 4.035 1.127 6.536 2.718zM46.98 3.664v-1.82H30.836v1.82H41.73v2.863L31.4 9.55c-.023.006-.042.014-.062.02 0 .003 0 .005.002.007-.339.124-.547.461-.547.864 0 .4.206.736.541.86.022.01.042.02.066.026.016.004.032.01.05.012l.137.024c.406.076 4.06.784 7.396 2.908 1.81 1.148 3.24 2.518 4.253 4.069 1.107 1.702 1.709 3.574 1.83 5.696h-7.34c-.039-.005-.077-.011-.116-.011-.04 0-.079.006-.116.011h-6.46a.826.826 0 0 0-.227.035v1.75c.07.02.144.035.228.035h14.958a.91.91 0 0 0 .908-.849.952.952 0 0 0 .012-.157c.004-2.961-.81-5.62-2.417-7.899-1.784-2.53-4.475-4.547-8-5.996a25.365 25.365 0 0 0-1.51-.563l7.836-2.294a.859.859 0 0 0 .186-.06l.013-.007a.835.835 0 0 0 .14-.08c.012-.008.023-.02.035-.028a.84.84 0 0 0 .099-.084c.012-.013.023-.029.034-.042a.828.828 0 0 0 .074-.095c.012-.016.019-.035.028-.052a.944.944 0 0 0 .053-.102c.01-.025.015-.05.024-.075.01-.032.02-.06.027-.092a.948.948 0 0 0 .012-.123c.001-.018.005-.035.005-.054V7.2 3.664z"/></g><g fill="#262626"><g transform="matrix(1.045 0 0 1.045 0 -2.299)"><circle r=".868" cy="12.621" cx="19.634"/><circle r=".868" cy="21.999" cx="19.634"/></g><path d="M19.038 11.847h2.96v.67h-2.96zM19.038 19.062h2.96v.67h-2.96zM19.568 12.636h1.9v6.307h-1.9z"/><g><g transform="matrix(1.045 0 0 1.045 0 -2.299)"><circle r=".868" cy="12.621" cx="25.57"/><circle r=".868" cy="21.999" cx="25.57"/></g><path d="M25.241 11.847h2.96v.67h-2.96zM25.241 19.062h2.96v.67h-2.96zM25.77 12.636h1.902v6.307H25.77z"/></g></g><path fill="#d52029" d="M23.336 0h.566v31.58h-.566z"/></svg>