<svg xmlns="http://www.w3.org/2000/svg" height="17.664" width="149.042" viewBox="0 0 149.04178 17.663723"><g fill="#1a1a1a"><path d="M13.026 1.381H2.588c-.443 0-.789.05-.962.198-.196.172-.295.518-.295.888v5.724h8.784c.937 0 2.121.123 2.936 1.209.27.37.789 1.282.789 3.454 0 .937-.123 2.614-.962 3.577-.814.937-1.95 1.036-2.715 1.036h-8.14c-1.012 0-1.482-.345-1.704-.642C.024 16.43 0 15.789 0 15.295V2.492C0 1.948.05 1.258.492.765.937.273 1.554.196 2.047.196h10.98v1.185zM1.331 14.853c0 .74.075.937.148 1.06.271.394.862.37 1.358.37H9.67c.59 0 1.405 0 2.023-.641.542-.568.715-1.58.715-2.887 0-.913-.1-2.097-.715-2.763-.618-.642-1.408-.617-2.023-.617H1.331zM21.63 1.826C22.023.887 22.518 0 23.554 0s1.53.912 1.925 1.826l6.613 15.642H30.66l-2.097-5.032H18.548l-2.099 5.032h-1.43zm-2.567 9.423h8.982l-3.776-9.028c-.147-.345-.369-.988-.715-.988-.345 0-.568.643-.715.988zM40.649 1.505C41.193.196 41.685 0 42.4 0s1.208.196 1.75 1.505l6.713 15.963h-1.432L42.919 1.751c-.098-.221-.148-.567-.518-.567-.369 0-.419.346-.517.567L35.37 17.468H33.94zM57.11 17.468V1.381h-7.228V.196h15.79v1.185h-7.228v16.087zM67.657 16.283h8.066c.716 0 1.777-.123 2.322-.443 1.035-.617 1.084-1.826 1.084-2.912 0-.987-.025-2.17-.717-2.887-.64-.641-1.627-.69-2.17-.69h-8.24V8.167H75.6c.816 0 1.95 0 2.69-.938.542-.69.542-1.604.542-2.492 0-.863-.025-2.096-.69-2.788-.32-.32-.889-.566-1.481-.566h-8.906V.196h8.661c.788 0 1.947.026 2.836.963.912.962 1.012 2.417 1.012 3.626 0 1.086-.099 2.27-.938 3.109-.37.37-.888.64-1.355.764v.098c.615.074 1.577.37 2.095 1.308.494.889.494 2.74.494 2.837 0 1.924-.395 3.208-1.628 3.923-.765.445-1.876.642-2.887.642h-8.387v-1.183zM88.456 1.826C88.849.887 89.344 0 90.379 0c1.037 0 1.53.912 1.924 1.826l6.613 15.642h-1.432l-2.096-5.032H85.372l-2.099 5.032h-1.43zm-2.567 9.423h8.982l-3.776-9.028c-.148-.345-.37-.988-.716-.988s-.567.643-.715.988zM113.609 1.381h-10.435c-.445 0-.79.05-.963.198-.198.172-.295.518-.295.888v5.724h8.782c.938 0 2.122.123 2.937 1.209.27.37.788 1.282.788 3.454 0 .937-.123 2.614-.962 3.577-.815.937-1.95 1.036-2.713 1.036h-8.142c-1.012 0-1.48-.345-1.702-.642-.298-.394-.322-1.036-.322-1.53V2.492c0-.543.05-1.233.493-1.726.444-.492 1.06-.569 1.556-.569h10.977v1.185zm-11.693 13.472c0 .74.073.937.147 1.06.272.394.865.37 1.356.37h6.835c.592 0 1.407 0 2.022-.641.543-.568.716-1.58.716-2.887 0-.913-.098-2.097-.716-2.763-.616-.642-1.406-.617-2.022-.617h-8.338zM130.968 1.875c1.95 1.949 2.049 4.958 2.049 6.956 0 2-.099 5.01-2.049 6.959-1.775 1.775-4.39 1.874-6.314 1.874-1.926 0-4.539-.099-6.316-1.874-1.95-1.949-2.049-4.96-2.049-6.959 0-1.998.098-5.007 2.05-6.956C120.114.098 122.727 0 124.653 0c1.923 0 4.539.098 6.314 1.875zm-11.767 12.953c1.48 1.653 3.798 1.653 5.452 1.653 1.653 0 3.97 0 5.452-1.653 1.432-1.603 1.481-3.998 1.481-5.997 0-1.998-.05-4.39-1.48-5.994-1.483-1.653-3.8-1.653-5.453-1.653-1.655 0-3.973 0-5.452 1.653-1.432 1.603-1.482 3.996-1.482 5.994 0 2 .05 4.394 1.482 5.997zM135.2 17.468V2.245c0-.47 0-1.136.47-1.58.47-.443 1.406-.469 1.653-.469h7.13c1.11 0 2.295.05 3.28.914.989.838 1.309 2.146 1.309 4.392 0 1.404-.174 3.206-1.432 4.17-.592.469-1.455.74-2.32.74h-8.757v7.057h-1.332zm9.326-8.242c1.432 0 2.123-.444 2.418-.79.643-.765.667-2.64.667-3.281 0-.617-.024-2.22-.715-2.986-.347-.395-1.062-.789-2.32-.789h-7.054c-.988 0-.988.47-.988 1.061v6.784h7.992z"/></g></svg>