<svg xmlns="http://www.w3.org/2000/svg" height="16.82" width="141.911" viewBox="0 0 141.9106 16.819565"><g fill="#fff"><path d="M12.403 1.315H2.465c-.422 0-.752.047-.917.188-.187.165-.28.494-.28.846V7.8H9.63c.892 0 2.02.117 2.796 1.151.256.353.75 1.22.75 3.289 0 .892-.117 2.49-.916 3.405-.775.893-1.855.988-2.585.988h-7.75c-.964 0-1.41-.329-1.623-.612-.28-.376-.303-.986-.303-1.456V2.372C0 1.855.047 1.198.469.728c.424-.468 1.01-.54 1.48-.54h10.455v1.127zM1.268 14.142c0 .705.07.893.14 1.01.259.375.82.351 1.293.351h6.507c.562 0 1.337 0 1.925-.61.517-.54.682-1.503.682-2.748 0-.87-.096-1.997-.682-2.63-.588-.613-1.34-.589-1.925-.589h-7.94zM20.595 1.738C20.97.845 21.44 0 22.427 0c.986 0 1.456.869 1.833 1.738l6.297 14.895h-1.364l-1.997-4.792H17.66l-1.998 4.792H14.3zm-2.444 8.974h8.552l-3.595-8.597c-.14-.328-.351-.94-.68-.94-.33 0-.542.612-.682.94zM38.704 1.434C39.222.188 39.69 0 40.372 0c.682 0 1.15.187 1.667 1.433l6.39 15.2h-1.362L40.866 1.668c-.094-.211-.141-.54-.494-.54-.35 0-.399.329-.492.54l-6.202 14.964h-1.363zM54.378 16.633V1.315h-6.882V.187H62.53v1.128h-6.882v15.318zM64.42 15.504h7.68c.682 0 1.692-.117 2.211-.422.985-.588 1.032-1.739 1.032-2.773 0-.94-.024-2.066-.683-2.748-.61-.61-1.549-.658-2.065-.658h-7.846V7.776h7.234c.777 0 1.856 0 2.562-.893.515-.657.515-1.527.515-2.373 0-.822-.024-1.996-.657-2.654-.305-.306-.846-.54-1.41-.54h-8.48V.188h8.247c.75 0 1.853.024 2.7.916.869.917.963 2.302.963 3.453 0 1.034-.093 2.161-.892 2.96-.352.352-.846.61-1.29.728v.093c.585.07 1.5.352 1.994 1.246.47.846.47 2.608.47 2.7 0 1.833-.375 3.055-1.55 3.736-.728.423-1.786.612-2.748.612H64.42v-1.128zM84.223 1.738C84.598.845 85.07 0 86.055 0c.987 0 1.456.869 1.832 1.738l6.296 14.895H92.82l-1.996-4.792h-9.537l-1.998 4.792h-1.362zm-2.444 8.974h8.553l-3.595-8.597c-.142-.328-.354-.94-.682-.94-.33 0-.54.612-.682.94zM108.173 1.315h-9.935c-.424 0-.753.047-.918.188-.188.165-.28.494-.28.846V7.8h8.362c.892 0 2.02.117 2.796 1.151.257.353.75 1.22.75 3.289 0 .892-.117 2.49-.915 3.405-.776.893-1.857.988-2.584.988h-7.752c-.964 0-1.41-.329-1.621-.612-.284-.376-.307-.986-.307-1.456V2.372c0-.517.048-1.174.47-1.644.423-.468 1.01-.54 1.481-.54h10.452v1.127zM97.04 14.142c0 .705.07.893.14 1.01.259.375.823.351 1.29.351h6.509c.563 0 1.34 0 1.925-.61.517-.54.682-1.503.682-2.748 0-.87-.094-1.997-.682-2.63-.587-.613-1.339-.589-1.925-.589h-7.94zM124.702 1.786c1.857 1.856 1.95 4.721 1.95 6.624 0 1.903-.093 4.77-1.95 6.626-1.69 1.69-4.181 1.784-6.012 1.784-1.835 0-4.322-.094-6.014-1.784-1.857-1.856-1.95-4.723-1.95-6.626 0-1.903.093-4.768 1.95-6.624 1.692-1.691 4.18-1.785 6.014-1.785 1.831-.001 4.321.093 6.012 1.785zm-11.205 12.332c1.41 1.574 3.617 1.574 5.192 1.574 1.573 0 3.78 0 5.191-1.574 1.363-1.526 1.41-3.806 1.41-5.71 0-1.902-.048-4.18-1.41-5.707-1.41-1.574-3.617-1.574-5.19-1.574-1.577 0-3.784 0-5.193 1.574-1.363 1.527-1.41 3.805-1.41 5.708s.047 4.183 1.41 5.71zM128.732 16.633V2.138c0-.446 0-1.081.447-1.503.446-.423 1.339-.447 1.574-.447h6.788c1.057 0 2.186.048 3.124.87.941.798 1.246 2.043 1.246 4.182 0 1.337-.166 3.052-1.364 3.97-.564.447-1.385.705-2.208.705H130v6.72h-1.268zm8.88-7.847c1.362 0 2.02-.423 2.302-.752.612-.729.634-2.514.634-3.125 0-.587-.022-2.114-.68-2.842-.33-.376-1.012-.752-2.21-.752h-6.716c-.94 0-.94.447-.94 1.01v6.46h7.61z"/></g></svg>