<svg xmlns="http://www.w3.org/2000/svg"><defs><path id="a" d="M.239.902h11.523V22H.239z"/></defs><symbol id="eye" viewBox="0 0 35 20"><path d="M34.769 9.639a20.743 21.612 0 0 0-34.538 0L0 10l.231.361a20.743 21.612 0 0 0 34.538 0L35 10zM17.5 18.705A19.498 20.315 0 0 1 1.5 10a19.498 20.315 0 0 1 16-8.704A19.5 20.317 0 0 1 33.502 10 19.5 20.317 0 0 1 17.5 18.704zm0 0"/><path d="M17.511 1.946c-4.101 0-7.44 3.489-7.44 7.778s3.337 7.778 7.44 7.778 7.443-3.49 7.443-7.778c0-4.29-3.34-7.778-7.442-7.778zm0 14.258c-3.417 0-6.2-2.907-6.2-6.482 0-3.572 2.782-6.48 6.201-6.48 3.42 0 6.201 2.908 6.201 6.482 0 3.573-2.782 6.481-6.2 6.481zm0 0"/><path d="M17.511 7.13c-1.366 0-2.48 1.164-2.48 2.594 0 1.429 1.113 2.592 2.481 2.592 1.368 0 2.48-1.164 2.48-2.592a2.487 2.591 0 0 0-2.48-2.593zm0 3.889a1.244 1.296 0 1 1 0-2.592 1.244 1.296 0 1 1 0 2.592zm0 0"/><path d="M18.132 5.186a.621.647 0 0 0-.62-.648c-2.735 0-4.96 2.326-4.96 5.186a.621.647 0 1 0 1.24 0 3.73 3.887 0 0 1 3.72-3.89.622.648 0 0 0 .62-.648zm0 0"/></symbol><symbol id="facebook" viewBox="0 0 11 21"><g transform="matrix(.9644 0 0 .99663 -.23 -.899)"><path d="M11.216.879L8.48.875c-3.074 0-5.06 2.038-5.06 5.192v2.394H.668a.43.43 0 0 0-.43.43v3.469c0 .237.193.43.43.43h2.751v8.753c0 .237.193.43.431.43h3.588a.43.43 0 0 0 .431-.43V12.79h3.216a.43.43 0 0 0 .43-.43l.002-3.469a.43.43 0 0 0-.43-.429H7.869v-2.03c0-.975.233-1.471 1.503-1.471l1.843-.001a.43.43 0 0 0 .43-.43V1.31a.431.431 0 0 0-.429-.431zm0 0"/></g></symbol><symbol id="fence" viewBox="190 384 44 34"><path d="M233.185 400.732a.804.819 0 0 0 .815-.81v-7.557a.804.819 0 0 0-.815-.808h-2.444v-2.428a.783.797 0 0 0-.202-.533l-3.802-4.317a.825.84 0 0 0-1.227 0l-3.803 4.317a.783.797 0 0 0-.201.533v2.428h-4.889v-2.428a.783.797 0 0 0-.2-.533l-3.804-4.317a.825.84 0 0 0-1.226 0l-3.804 4.317a.783.797 0 0 0-.2.533v2.428h-4.889v-2.428a.783.797 0 0 0-.201-.533l-3.803-4.317a.825.84 0 0 0-1.227 0l-3.802 4.317a.783.797 0 0 0-.202.533v2.428h-2.444a.804.819 0 0 0-.815.81v7.555c0 .448.364.81.815.81h2.444v2.697h-2.444a.804.819 0 0 0-.815.81v7.556c0 .447.364.809.815.809h2.444v3.776h-1.358a.804.819 0 0 0-.815.81c0 .448.364.81.815.81H232.1a.804.819 0 0 0 .815-.81.804.819 0 0 0-.815-.81h-1.358v-3.776h2.444a.804.819 0 0 0 .815-.81v-7.556a.804.819 0 0 0-.815-.81h-2.444v-2.696zm-.815-7.557v5.937h-1.629v-5.935zm-15.753 11.873h4.889v5.936h-4.889zm4.889-1.62h-4.889v-2.696h4.889zm-4.889 9.176h4.889v3.776h-4.889zm4.889-19.427v5.935h-4.889v-5.935zm-19.012 11.871h4.889v5.936h-4.889zm4.889-1.62h-4.889v-2.696h4.889zm-4.889 9.176h4.889v3.776h-4.889zm4.889-19.427v5.935h-4.889v-5.935zm-15.753 5.935v-5.935h1.629v5.935zm0 11.872v-5.936h1.629v5.936zm3.259 5.396v-26.948l2.989-3.392 2.987 3.392v26.948zm14.124 0v-26.948L212 386.04l2.989 3.392v26.948zm14.122 0v-26.948l2.989-3.392 2.987 3.392v26.948zm9.235-11.332v5.936h-1.629v-5.936z"/><path d="M197.876 394.377a1.344 1.37 0 0 0-1.358 1.35c0 .744.61 1.35 1.358 1.35a1.344 1.37 0 0 0 1.36-1.35 1.299 1.323 0 0 0-.398-.954 1.369 1.394 0 0 0-.962-.396zm0 12.952a1.344 1.37 0 0 0-1.358 1.35c0 .744.61 1.35 1.358 1.35a1.341 1.366 0 0 0 1.358-1.35 1.299 1.323 0 0 0-.398-.954 1.361 1.386 0 0 0-.96-.396zM212 394.377a1.344 1.37 0 0 0-1.358 1.35c0 .744.608 1.35 1.358 1.35a1.344 1.37 0 0 0 1.358-1.35 1.299 1.323 0 0 0-.398-.954 1.366 1.39 0 0 0-.96-.396zm0 12.952a1.344 1.37 0 0 0-1.358 1.35c0 .744.608 1.35 1.358 1.35a1.341 1.366 0 0 0 1.356-1.35 1.299 1.323 0 0 0-.397-.954 1.361 1.386 0 0 0-.959-.396zm14.124-12.952a1.344 1.37 0 0 0-1.36 1.35c0 .744.61 1.35 1.36 1.35a1.344 1.37 0 0 0 1.358-1.35 1.299 1.323 0 0 0-.398-.954 1.366 1.39 0 0 0-.96-.396zm0 12.952a1.344 1.37 0 0 0-1.36 1.35c0 .744.61 1.35 1.36 1.35a1.344 1.37 0 0 0 1.358-1.35 1.299 1.323 0 0 0-.398-.954 1.366 1.39 0 0 0-.96-.396z"/></symbol><symbol id="gateway" viewBox="0 0 42 30"><path d="M0 28.75h7.795V30H0zM7.795 1.267H4.519V0H3.227v1.268H0v1.25h7.795zm26.41 27.483H42V30h-7.795zM38.72 1.267V0h-1.29v1.268h-3.227v1.25H42v-1.25zm0 0"/><path d="M34.205 26.875v1.25h7.743v-1.25h-.646v-22.5h.645v-1.25h-7.744v1.251h.645v3.125h-1.884V5h-1.291v2.5h-3.227V3.75h-1.29V7.5H23.93V1.875h-1.292V7.5h-3.227V1.875h-1.29V7.5h-3.226V3.75h-1.29V7.5h-3.229V5h-1.29v2.5H7.099V4.375h.645v-1.25H0v1.251h.645v22.499H0v1.25h7.745v-1.25H7.1v-1.25h1.987v3.75h23.878v-3.75h1.884v1.25zm1.936-22.5h3.871v17.5h-3.871zm0 18.75h3.871v3.75h-3.871zm-30.333 3.75H1.937v-3.75h3.871zm0-5H1.937v-17.5h3.871zm3.278 2.5H7.099V8.75h1.987zm4.518 3.75h-3.228v-2.5h3.227zm0-3.75h-3.228V8.75h3.227zm4.518 3.75h-3.227v-2.5h3.227zm0-3.75h-3.227V16.4c.462.3 1.017.475 1.613.475.597 0 1.152-.175 1.614-.475zm-1.614-8.75c-.889 0-1.613-.701-1.613-1.563s.724-1.562 1.613-1.562c.89 0 1.614.7 1.614 1.563 0 .862-.724 1.562-1.614 1.562zm1.614-3.9a2.98 3.016 0 0 0-1.614-.475c-.596 0-1.15.175-1.613.475V8.75h3.227zm4.517 16.4h-3.226v-2.5h3.226zm0-3.75h-3.226V16.4c.46.3 1.018.475 1.613.475.597 0 1.151-.175 1.613-.475zm-1.614-8.75c-.89 0-1.614-.701-1.614-1.563s.724-1.562 1.614-1.562c.89 0 1.613.7 1.613 1.563.001.862-.723 1.562-1.613 1.562zm1.614-3.9a2.984 3.02 0 0 0-1.613-.475c-.595 0-1.151.175-1.613.475V8.75h3.226zm4.518 16.4H23.93v-2.5h3.227zm0-3.75H23.93V16.4c.462.3 1.017.475 1.613.475a2.96 2.96 0 0 0 1.614-.475zm-1.614-8.75c-.889 0-1.613-.701-1.613-1.563s.724-1.562 1.613-1.562c.89 0 1.614.7 1.614 1.563 0 .862-.724 1.562-1.614 1.562zm1.614-3.9a2.984 3.02 0 0 0-1.614-.475c-.596 0-1.15.175-1.613.475V8.75h3.227zm4.516 16.4h-3.227v-2.5h3.227zm0-3.75h-3.227V8.75h3.227zm1.29 0V8.75h1.883v15.625zm0 0"/></symbol><symbol id="google-plus" viewBox="193 388 27.999998 18"><path d="M210.463 394.632H201.4v4.263h4.558c-.613 1.768-2.098 2.842-3.995 2.842-2.536 0-4.763-2.215-4.763-4.74 0-2.521 2.225-4.734 4.763-4.734 1.213 0 2.238.394 2.965 1.137l.33.338 3.125-3.173-.34-.334c-1.479-1.46-3.582-2.231-6.08-2.231-5.025 0-8.963 3.953-8.963 8.998 0 5.047 3.938 9.002 8.963 9.002 4.633 0 7.924-2.759 8.59-7.2.087-.576.13-1.182.132-1.802 0-.681-.057-1.42-.154-1.975zm1.67 0v3.315h2.8v2.842h3.27v-2.842H221v-3.318h-2.798v-2.84h-3.269v2.843z"/></symbol><symbol id="inst" viewBox="0 0 24 24"><g><path d="M18.46 6.463a.926.926 0 0 1-.923-.924V3.691c0-.508.415-.924.924-.924h1.848c.504 0 .918.416.918.924V5.54a.924.924 0 0 1-.918.924zm-6.463 2.02a3.49 3.49 0 0 0-1.82.518 1.8 1.8 0 0 1 .522-.086 1.783 1.783 0 1 1 0 3.569 1.782 1.782 0 0 1-1.783-1.786 1.8 1.8 0 0 1 .086-.522 3.486 3.486 0 0 0-.519 1.821 3.52 3.52 0 1 0 7.04 0 3.519 3.519 0 0 0-3.526-3.514zm0 0"/><path d="M11.997 6.463a5.536 5.536 0 1 1 0 11.074 5.536 5.536 0 0 1-5.534-5.54 5.535 5.535 0 0 1 5.534-5.534m0-1.848c-4.07 0-7.382 3.312-7.382 7.382 0 4.076 3.312 7.388 7.382 7.388a7.393 7.393 0 0 0 7.388-7.388c0-4.07-3.312-7.382-7.388-7.382zm0 0"/><path d="M19.496 0H4.497A4.498 4.498 0 0 0 0 4.497v15A4.5 4.5 0 0 0 4.497 24h15A4.5 4.5 0 0 0 24 19.497v-15A4.5 4.5 0 0 0 19.496 0zm2.656 8.306h-6.035a5.5 5.5 0 0 1 1.419 3.691 5.537 5.537 0 1 1-11.074 0c0-1.419.536-2.708 1.415-3.691H1.848V4.497c0-1.46 1.19-2.649 2.65-2.649h14.998a2.655 2.655 0 0 1 2.655 2.65v3.808zm0 0"/></g></symbol><symbol id="mail" viewBox="0 0 33 32.999996"><g><path d="M31.5 10.123a1.65 1.65 0 0 0-.54.095V1.617C30.96.726 30.219 0 29.305 0H3.7c-.918 0-1.66.724-1.66 1.617v8.598a1.695 1.695 0 0 0-.54-.09c-.722 0-1.5.531-1.5 1.695v18.92C0 31.985 1.041 33 2.319 33h28.362C31.959 33 33 31.986 33 30.738v-18.92c.001-1.164-.777-1.695-1.5-1.695zM4.029 1.94h24.943v9.642l-12.03 9.04a.772.772 0 0 1-.442.124.762.762 0 0 1-.444-.125L3.993 11.554a.937.937 0 0 0 .034-.258V1.94zm26.983 28.799a.331.331 0 0 1-.331.324H2.319a.331.331 0 0 1-.33-.324V12.495l12.853 9.66a2.77 2.77 0 0 0 1.658.528c.616 0 1.204-.188 1.657-.528l12.855-9.66zm0 0"/><path d="M9.567 6.328h4.353a.983.983 0 0 0 .994-.969.981.981 0 0 0-.994-.97H9.567a.982.982 0 0 0-.995.97c0 .534.446.97.995.97zm0 3.906h13.39a.982.982 0 0 0 .995-.97.981.981 0 0 0-.995-.969H9.567a.982.982 0 0 0-.995.969c0 .535.446.97.995.97zm0 3.906h13.39a.98.98 0 0 0 .995-.969.981.981 0 0 0-.995-.969H9.567a.982.982 0 0 0-.995.97c0 .535.446.968.995.968zm0 0"/></g></symbol><symbol id="money-bag" viewBox="0 0 35.000002 36"><path d="M9.55 6.017a1.724 1.716 0 0 0 1.617 1.18h4.403a1.72 1.72 0 0 0 1.618-1.18c.231-.677.952-2.186 1.513-2.665a1.804 1.804 0 0 0 .601-1.706A1.704 1.697 0 0 0 18.161.337c-1.78-.598-3.356-.396-4.563.58a.553.55 0 0 1-.72 0C11.672-.06 10.096-.262 8.316.335a1.708 1.7 0 0 0-1.144 1.31 1.82 1.812 0 0 0 .602 1.707c.634.54 1.606 2.16 1.776 2.664zM8.336 1.876a.512.51 0 0 1 .352-.399c.55-.185 1.065-.278 1.54-.278a2.94 2.926 0 0 1 1.91.655 1.725 1.718 0 0 0 2.201 0c.891-.72 2.049-.846 3.449-.377.256.085.33.286.353.399a.595.592 0 0 1-.205.558c-.907.778-1.715 2.749-1.867 3.194a.532.53 0 0 1-.498.371h-4.4a.533.53 0 0 1-.499-.371c-.248-.726-1.347-2.517-2.131-3.194a.59.588 0 0 1-.205-.558zM18.406 8.4a.6.597 0 0 0-.593-.6.574.571 0 0 0-.295.092.541.539 0 0 0-.295-.093h-7.112a.6.597 0 0 0-.592.6c0 .332.264.601.592.601h7.112v.6h-6.52a.595.595 0 0 0-.592.597c0 .334.267.6.593.6h7.066a2.901 2.888 0 0 0 1.883.705c.793 0 1.537-.312 2.095-.88a.608.605 0 0 0 0-.847.583.58 0 0 0-.836 0c-.67.677-1.832.68-2.506.009zm0 0M12.483 15.601c-3.8 0-8.295 4.878-8.295 9 0 .33.266.597.592.597a.59.598 0 0 0 .593-.597c0-3.428 3.987-7.802 7.11-7.802a.592.6 0 1 0 0-1.198zm0 0"/><path d="M29.075 19.198c-.613 0-1.34.039-2.074.124a11.665 11.812 0 0 0-3.177-3.782l-4.268-2.94c-.706-.548-1.82-1.201-3.11-1.201h-4.607a5.08 5.08 0 0 0-3.142 1.092l-4.193 3.094c-4.371 3.481-5.754 9.58-3.29 14.502.898 1.79 2.397 3.954 4.445 4.096.159.012.324.017.486.017h11.53A4.736 4.795 0 0 0 21.37 36a4.738 4.798 0 0 0 4.052-2.32c1.06.33 2.356.521 3.652.521 2.85 0 5.925-.915 5.925-2.402V28.5h-.048a1.004 1.017 0 0 0 .048-.3V21.3c0-1.658-3.726-2.1-5.925-2.1zm4.693 2.095c-.012.014-.02.027-.037.04a.906.917 0 0 1-.084.058 2.143 2.17 0 0 1-.137.077c-.042.023-.086.043-.138.067-.061.03-.134.056-.21.086l-.19.07-.286.085c-.078.02-.156.044-.243.068a16.467 16.675 0 0 1-.654.137c-.141.027-.3.046-.457.067-.107.015-.208.032-.323.047-.185.02-.391.036-.596.05-.104.008-.2.02-.306.025a18.335 18.566 0 0 1-2.068 0c-.107-.006-.202-.017-.306-.026a18.17 18.4 0 0 1-.596-.049c-.116-.015-.216-.032-.323-.047a7.59 7.686 0 0 1-.457-.067c-.105-.018-.193-.037-.29-.058a16.467 16.675 0 0 1-.364-.08c-.086-.023-.164-.044-.243-.067-.099-.03-.2-.058-.286-.085-.07-.024-.13-.047-.19-.07-.076-.03-.149-.056-.21-.086a2.135 2.162 0 0 1-.359-.202.5.507 0 0 1-.035-.038l.02-.017a.665.673 0 0 1 .084-.058c.046-.032.107-.068.176-.102l.122-.058.156-.064.208-.077.162-.053a7.49 7.49 0 0 1 .437-.12c.074-.018.16-.035.24-.052a7.7 7.7 0 0 1 .3-.06l.364-.061a16.154 16.358 0 0 1 2.423-.173c2.797-.001 4.367.584 4.696.893zm-9.035 4.937l.164.067c.105.041.21.08.32.119l.172.058c.124.037.252.075.385.11l.135.039c.18.043.365.087.553.123.036.009.08.015.118.024.15.025.303.053.46.076l.2.03c.134.017.269.035.401.046l.215.024.422.03c.061.002.124.008.189.01.202.01.404.015.604.015.202 0 .405-.006.607-.015l.191-.01.418-.03c.074-.006.147-.015.22-.024.133-.01.265-.03.397-.046.07-.01.139-.019.206-.03.153-.021.303-.047.451-.076.044-.01.088-.015.128-.024.189-.038.37-.08.55-.123.05-.012.094-.026.144-.04.13-.037.254-.071.379-.11a7.536 7.63 0 0 0 .493-.176c.054-.023.11-.043.162-.067.107-.044.209-.094.306-.143.032-.015.067-.026.095-.045l.003 2.116c-.139.34-1.67 1.1-4.084 1.225-.217.005-.429.017-.664.017-1.305 0-2.592-.202-3.579-.56a4.333 4.387 0 0 0-.508-.735c-.023-.03-.048-.056-.074-.085a3.265 3.306 0 0 0-.226-.243c-.04-.041-.084-.077-.125-.117-.069-.062-.135-.126-.208-.185a.25.254 0 0 0-.02-.019v-1.413l.098.045c.099.05.197.097.302.142zM16.905 33H6.146a6.44 6.44 0 0 1-.408-.015c-1.162-.08-2.395-1.3-3.465-3.44-2.211-4.414-.963-9.887 2.948-13.002l4.193-3.094a3.948 3.998 0 0 1 2.424-.85h4.608c.959 0 1.829.518 2.417.973l4.268 2.935a10.48 10.611 0 0 1 2.632 3.003c-.749.155-1.475.396-1.973.745l-.04.03a2.273 2.301 0 0 0-.209.174.633.641 0 0 0-.072.08.957.969 0 0 0-.205.305.95.962 0 0 0-.116.454v5.456a4.329 4.383 0 0 0-.616-.203l-.084-.023a4.63 4.688 0 0 0-.637-.106c-.023-.003-.048-.003-.071-.003a4.033 4.033 0 0 0-.368-.02c-.067 0-.128.01-.194.013-.05 0-.098.003-.15.005a5.462 5.531 0 0 0-.623.083c-.002.002-.006.002-.012.002-.014.003-.031.011-.046.015a4.806 4.867 0 0 0-.544.158l-.19.07a5.917 5.917 0 0 0-.513.243c-.06.035-.121.074-.179.112a4.412 4.467 0 0 0-.338.228c-.063.047-.128.094-.191.144a4.107 4.16 0 0 0-.552.541 4.765 4.825 0 0 0-.254.313c-.043.058-.09.115-.13.174a4.212 4.265 0 0 0-.375.683c-.07.147-.13.296-.183.451-.014.045-.035.09-.046.132a4.12 4.173 0 0 0-.141.607l-.021.079c-.002.032-.002.067-.009.1a4.859 4.92 0 0 0-.035.427c-.002.053-.008.103-.008.156l-.003.067c0 .094.009.188.015.281.02.518.1 1.04.255 1.517zm4.466 1.798c-1.948 0-3.53-1.59-3.554-3.556l.003-.14c.002-.065.005-.133.01-.197a1.25 1.25 0 0 1 .019-.164c.005-.055.014-.11.023-.167.03-.156.06-.307.11-.458.002-.017.012-.032.014-.047a3.823 3.87 0 0 1 .199-.48 3.658 3.704 0 0 1 1.435-1.526c.002 0 .002-.003.006-.003a3.226 3.267 0 0 1 .435-.208l.115-.043c.13-.047.266-.088.402-.117.02-.007.038-.013.057-.015.17-.036.341-.056.511-.064.036-.003.067-.006.1-.006.176-.005.35 0 .52.02l.03.003c.182.023.362.062.537.11l.009.003a3.687 3.734 0 0 1 .995.466l.023.018c.02.014.04.032.06.044.1.074.192.15.284.23l.063.06c.09.086.177.173.259.267l.025.026a3.558 3.603 0 0 1 .567.913c.047.106.087.211.122.32 0 .006.006.015.006.023.036.109.064.217.087.328.002.009.006.017.006.026.023.11.04.223.052.334.003.012.003.021.006.03a3.66 3.705 0 0 1-.002.75c0 .018-.006.035-.006.055a3.956 4.006 0 0 1-.053.323c-.002.012-.008.023-.008.035a4.468 4.524 0 0 1-.093.34l-.006.013a3.558 3.603 0 0 1-3.368 2.454zM29.075 33c-1.126 0-2.244-.153-3.165-.426v-.002a4.65 4.65 0 0 0 .134-.597c.009-.05.018-.096.023-.146a4.9 4.9 0 0 0 .047-.63 3.238 3.279 0 0 0-.047-.624 2.696 2.73 0 0 0-.031-.23c.9.166 1.944.257 3.04.257 1.415 0 3.464-.185 4.742-.756l.003 1.914c-.151.367-1.952 1.24-4.746 1.24zm0-7.202c-2.789 0-4.583-.864-4.739-1.196l.003-1.956.046.019c.141.061.288.12.448.172l.026.009c.159.053.33.1.503.143.058.015.116.026.175.04.126.03.254.058.384.082.064.012.128.026.191.036.145.026.29.049.437.07l.136.023c.19.024.384.047.573.068.049.003.095.006.145.012l.434.035c.061.002.122.006.183.012l.39.018c.057.002.108.002.163.006a14.294 14.474 0 0 0 1.004 0c.055-.003.11-.003.162-.006l.388-.018c.064-.006.124-.008.189-.012l.435-.035c.046-.006.092-.008.14-.014.192-.018.383-.041.574-.068.046-.006.093-.015.139-.02.147-.02.292-.044.435-.07l.19-.036c.13-.026.261-.053.388-.085a6 6.075 0 0 0 .685-.187l.026-.009c.153-.05.3-.108.44-.166.016-.009.035-.015.052-.021l.002 1.913c-.152.372-1.953 1.241-4.747 1.241zm0 0"/></symbol><symbol id="splash_1" viewBox="0 0 8.6161251 16.237104" preserveAspectRatio="none"><path d="M5.577 2.433C4.479.745 3.443.113 2.348.007 1.979-.028 1.307.069.921.27.114.686-.17 1.294.098 2.305c.284 1.073.781 2.031 3.773 4.457 3.303 2.679 3.93 3.701 3.977 6.466.016.975-.047 2.05-.141 2.392-.23.831.114.851.449-.113.665-1.915.564-5.595-.014-7.503a21.476 21.476 0 0 0-2.565-5.571z"/></symbol><symbol id="splash_2" viewBox="0 0 30.000006 63.110339" preserveAspectRatio="none"><path d="M9.605 7.634C14.177 1.173 16.598-.298 22.13.047c.984.06 1.897.23 2.709.514 5.7 1.984 7.026 9.014 2.225 15.381-1.204 1.616-5.698 6.117-9.982 10.015-4.287 3.899-8.571 8.288-9.515 9.745C3.833 41.44 2.85 51.188 5.152 59.73c.9 3.222.77 5.575-1.823.135-4.892-10.262-4.405-23.23 1.546-41.938 1.606-5.052 2.67-7.392 4.73-10.293z"/></symbol><symbol id="vkontakte" viewBox="0 0 29 16"><path d="M24.961 10.172c.963.917 1.978 1.777 2.84 2.786.382.447.743.91 1.019 1.43.391.738.036 1.551-.643 1.596l-4.225-.002c-1.09.088-1.96-.34-2.69-1.065-.585-.581-1.128-1.199-1.69-1.8a4.009 3.908 0 0 0-.76-.658c-.577-.365-1.077-.254-1.407.333-.336.597-.412 1.256-.444 1.922-.045.97-.346 1.224-1.345 1.269-2.136.098-4.163-.217-6.047-1.267-1.66-.927-2.948-2.233-4.068-3.713C3.32 8.123 1.65 4.955.148 1.701-.192.966.055.573.885.56 2.264.533 3.642.535 5.021.557c.56.008.931.321 1.148.837.745 1.787 1.658 3.487 2.803 5.063.305.42.617.84 1.06 1.135.49.327.862.218 1.093-.314.146-.337.21-.7.243-1.062.109-1.243.123-2.483-.068-3.722-.118-.773-.565-1.273-1.356-1.42C9.54 1 9.6.854 9.797.628c.339-.387.66-.628 1.295-.628h4.775c.752.144.919.474 1.021 1.21l.004 5.17c-.008.286.147 1.132.674 1.322.422.134.7-.196.953-.456 1.143-1.183 1.96-2.581 2.689-4.028a27.018 26.334 0 0 0 .87-1.958c.2-.49.514-.73 1.08-.72l4.596.003c.136 0 .273.002.405.024.776.129.987.453.748 1.19-.376 1.157-1.11 2.12-1.827 3.09-.766 1.032-1.586 2.03-2.346 3.07-.696.953-.64 1.43.227 2.255zm0 0"/></symbol></svg>