<svg xmlns="http://www.w3.org/2000/svg"><defs><path id="a" d="M.239.902h11.523V22H.239z"/></defs><symbol id="facebook" viewBox="0 0 11 21"><g transform="matrix(.9644 0 0 .99663 -.23 -.899)"><path d="M11.216.879L8.48.875c-3.074 0-5.06 2.038-5.06 5.192v2.394H.668a.43.43 0 0 0-.43.43v3.469c0 .237.193.43.43.43h2.751v8.753c0 .237.193.43.431.43h3.588a.43.43 0 0 0 .431-.43V12.79h3.216a.43.43 0 0 0 .43-.43l.002-3.469a.43.43 0 0 0-.43-.429H7.869v-2.03c0-.975.233-1.471 1.503-1.471l1.843-.001a.43.43 0 0 0 .43-.43V1.31a.431.431 0 0 0-.429-.431zm0 0"/></g></symbol><symbol id="google-plus" viewBox="193 388 27.999998 18"><path d="M210.463 394.632H201.4v4.263h4.558c-.613 1.768-2.098 2.842-3.995 2.842-2.536 0-4.763-2.215-4.763-4.74 0-2.521 2.225-4.734 4.763-4.734 1.213 0 2.238.394 2.965 1.137l.33.338 3.125-3.173-.34-.334c-1.479-1.46-3.582-2.231-6.08-2.231-5.025 0-8.963 3.953-8.963 8.998 0 5.047 3.938 9.002 8.963 9.002 4.633 0 7.924-2.759 8.59-7.2.087-.576.13-1.182.132-1.802 0-.681-.057-1.42-.154-1.975zm1.67 0v3.315h2.8v2.842h3.27v-2.842H221v-3.318h-2.798v-2.84h-3.269v2.843z"/></symbol><symbol id="inst" viewBox="0 0 24 24"><g><path d="M18.46 6.463a.926.926 0 0 1-.923-.924V3.691c0-.508.415-.924.924-.924h1.848c.504 0 .918.416.918.924V5.54a.924.924 0 0 1-.918.924zm-6.463 2.02a3.49 3.49 0 0 0-1.82.518 1.8 1.8 0 0 1 .522-.086 1.783 1.783 0 1 1 0 3.569 1.782 1.782 0 0 1-1.783-1.786 1.8 1.8 0 0 1 .086-.522 3.486 3.486 0 0 0-.519 1.821 3.52 3.52 0 1 0 7.04 0 3.519 3.519 0 0 0-3.526-3.514zm0 0"/><path d="M11.997 6.463a5.536 5.536 0 1 1 0 11.074 5.536 5.536 0 0 1-5.534-5.54 5.535 5.535 0 0 1 5.534-5.534m0-1.848c-4.07 0-7.382 3.312-7.382 7.382 0 4.076 3.312 7.388 7.382 7.388a7.393 7.393 0 0 0 7.388-7.388c0-4.07-3.312-7.382-7.388-7.382zm0 0"/><path d="M19.496 0H4.497A4.498 4.498 0 0 0 0 4.497v15A4.5 4.5 0 0 0 4.497 24h15A4.5 4.5 0 0 0 24 19.497v-15A4.5 4.5 0 0 0 19.496 0zm2.656 8.306h-6.035a5.5 5.5 0 0 1 1.419 3.691 5.537 5.537 0 1 1-11.074 0c0-1.419.536-2.708 1.415-3.691H1.848V4.497c0-1.46 1.19-2.649 2.65-2.649h14.998a2.655 2.655 0 0 1 2.655 2.65v3.808zm0 0"/></g></symbol><symbol id="vkontakte" viewBox="0 0 29 16"><path d="M24.961 10.172c.963.917 1.978 1.777 2.84 2.786.382.447.743.91 1.019 1.43.391.738.036 1.551-.643 1.596l-4.225-.002c-1.09.088-1.96-.34-2.69-1.065-.585-.581-1.128-1.199-1.69-1.8a4.009 3.908 0 0 0-.76-.658c-.577-.365-1.077-.254-1.407.333-.336.597-.412 1.256-.444 1.922-.045.97-.346 1.224-1.345 1.269-2.136.098-4.163-.217-6.047-1.267-1.66-.927-2.948-2.233-4.068-3.713C3.32 8.123 1.65 4.955.148 1.701-.192.966.055.573.885.56 2.264.533 3.642.535 5.021.557c.56.008.931.321 1.148.837.745 1.787 1.658 3.487 2.803 5.063.305.42.617.84 1.06 1.135.49.327.862.218 1.093-.314.146-.337.21-.7.243-1.062.109-1.243.123-2.483-.068-3.722-.118-.773-.565-1.273-1.356-1.42C9.54 1 9.6.854 9.797.628c.339-.387.66-.628 1.295-.628h4.775c.752.144.919.474 1.021 1.21l.004 5.17c-.008.286.147 1.132.674 1.322.422.134.7-.196.953-.456 1.143-1.183 1.96-2.581 2.689-4.028a27.018 26.334 0 0 0 .87-1.958c.2-.49.514-.73 1.08-.72l4.596.003c.136 0 .273.002.405.024.776.129.987.453.748 1.19-.376 1.157-1.11 2.12-1.827 3.09-.766 1.032-1.586 2.03-2.346 3.07-.696.953-.64 1.43.227 2.255zm0 0"/></symbol></svg>