<svg xmlns="http://www.w3.org/2000/svg" xmlns:xlink="http://www.w3.org/1999/xlink" height="87" width="103" viewBox="0 0 103 86.999998"><g transform="scale(.9904 .98947)" fill="#ff5248"><defs><path id="a" d="M0 0h103.999v87.926H0z"/></defs><clipPath id="b"><use height="100%" width="100%" xlink:href="#a" overflow="visible"/></clipPath><path clip-path="url(#b)" d="M101.963 12.124a2.036 2.036 0 1 1 0 4.072 2.036 2.036 0 0 1 0-4.072M62.063 75.382h-7.88a2.035 2.035 0 1 0 0 4.071h7.88c1.214 0 2.201.988 2.201 2.201a2.204 2.204 0 0 1-2.201 2.201H40.851a10.667 10.667 0 0 1-8.223-3.856l-5.073-6.097a14.719 14.719 0 0 0-10.921-5.312V56.604h7.472c3.686 0 7.177 1.41 9.829 3.969l10.948 10.569c.772.745.808 1.993.081 2.781a1.994 1.994 0 0 1-2.807.118l-8.596-7.88a2.036 2.036 0 0 0-2.751 3.001l8.596 7.88a6.035 6.035 0 0 0 4.093 1.589 6.05 6.05 0 0 0 4.457-1.946c2.217-2.402 2.107-6.202-.245-8.473L36.763 57.644a18.137 18.137 0 0 0-12.656-5.112h-7.84a5.046 5.046 0 0 0-4.672-3.155h-9.56A2.036 2.036 0 0 0 0 51.413v14.851a2.035 2.035 0 1 0 4.071 0V53.448h7.524a.97.97 0 0 1 .968.968v16.278a.968.968 0 0 1-.968.966H9.486a2.037 2.037 0 0 0 0 4.072h2.109a5.045 5.045 0 0 0 4.643-3.081 10.667 10.667 0 0 1 8.187 3.854l5.073 6.098a14.726 14.726 0 0 0 11.353 5.323h21.212a6.28 6.28 0 0 0 6.272-6.273 6.278 6.278 0 0 0-6.272-6.271M74.826 61.279a2.035 2.035 0 0 0-2.875.151l-.025.028a2.033 2.033 0 0 0 1.525 3.381 2.04 2.04 0 0 0 1.522-.681l-1.508-1.366 1.512 1.362a2.036 2.036 0 0 0-.151-2.875M67.721 65.265a2.037 2.037 0 0 0 2.395 3.293l.016-.013a2.026 2.026 0 0 0 .441-2.837 2.044 2.044 0 0 0-2.852-.443M63.619 71.994c.259 0 .521-.05.775-.155l.08-.034a2.035 2.035 0 0 0-1.662-3.717 2.035 2.035 0 0 0 .807 3.906"/><path clip-path="url(#b)" d="M57.403 69.801a2.037 2.037 0 1 0 .821 3.988 2.033 2.033 0 0 0 1.575-2.408 2.038 2.038 0 0 0-2.396-1.58M80.633 40.09l1.998-.388a2.035 2.035 0 1 0-3.997.776l.01.049a2.045 2.045 0 0 0 2.41 1.582 2.031 2.031 0 0 0 1.578-2.403zM80.771 44.169a2.037 2.037 0 0 0-2.211 1.899 2.043 2.043 0 0 0 2.033 2.191 2.029 2.029 0 0 0 2.027-1.88l-2.028-.182 2.029.179a2.037 2.037 0 0 0-1.85-2.207M78.022 56.057a2.043 2.043 0 0 0-2.779.772 2.036 2.036 0 1 0 3.55 1.994 2.028 2.028 0 0 0-.771-2.766M80.027 50.253a2.037 2.037 0 0 0-2.539 1.359 2.037 2.037 0 0 0 3.887 1.215l.01-.037a2.034 2.034 0 0 0-1.358-2.537M23.912 48.417a2.035 2.035 0 0 0-1.549 2.427l.014.06a2.033 2.033 0 0 0 2.456 1.497 2.036 2.036 0 0 0 1.502-2.45 2.037 2.037 0 0 0-2.423-1.534M25.138 34.297a2.04 2.04 0 0 0 2.672-1.063 2.037 2.037 0 0 0-3.717-1.662l-.024.055a2.033 2.033 0 0 0 1.069 2.67M23.732 40.269a2.03 2.03 0 0 0 2.385-1.606 2.036 2.036 0 1 0-3.985-.833l-.01.048a2.04 2.04 0 0 0 1.61 2.391M27.77 28.761c.361.263.781.389 1.196.389.629 0 1.25-.29 1.648-.838l.022-.03a2.034 2.034 0 0 0-.471-2.834 2.04 2.04 0 0 0-2.84.464l1.642 1.203-1.646-1.198a2.037 2.037 0 0 0 .449 2.844M33.06 24.59c.489 0 .98-.174 1.372-.526a2.036 2.036 0 0 0-2.725-3.026l-.016.015a2.027 2.027 0 0 0-.141 2.868c.4.445.952.669 1.51.669M38.009 21.024c.344 0 .693-.087 1.013-.271a2.037 2.037 0 0 0-1.988-3.554l-.04.023a2.037 2.037 0 0 0 1.015 3.802M41.67 17.144a2.037 2.037 0 0 0 2.544 1.347l.047-.015a2.04 2.04 0 0 0 1.317-2.565 2.03 2.03 0 0 0-2.557-1.313l.595 1.947-.599-1.946a2.036 2.036 0 0 0-1.347 2.545M49.632 17.396a2.037 2.037 0 1 0-.176-4.064l-.02.002a2.029 2.029 0 0 0-1.84 2.206 2.045 2.045 0 0 0 2.036 1.856M23.588 46.394l.03-.001a2.035 2.035 0 0 0 2.006-2.065l-.001-.05a2.04 2.04 0 0 0-2.095-1.982 2.03 2.03 0 0 0-1.975 2.088l2.035-.026-2.035.03a2.037 2.037 0 0 0 2.035 2.006M42.738 36.244v2.437c0 3.952 3.215 7.166 7.167 7.166h4.19a3.1 3.1 0 0 1 3.095 3.096v2.436a3.099 3.099 0 0 1-3.095 3.095h-4.643a2.645 2.645 0 0 1-2.642-2.643 2.036 2.036 0 0 0-4.072 0 6.721 6.721 0 0 0 6.714 6.715h.512v3.031a2.036 2.036 0 1 0 4.071 0v-3.031h.06c3.951 0 7.166-3.215 7.166-7.167v-2.436c0-3.952-3.215-7.167-7.166-7.167H49.905a3.1 3.1 0 0 1-3.096-3.095v-2.437a3.099 3.099 0 0 1 3.096-3.095h4.642a2.646 2.646 0 0 1 2.643 2.642 2.036 2.036 0 1 0 4.071 0 6.722 6.722 0 0 0-6.714-6.714h-.512v-3.031a2.037 2.037 0 0 0-4.071 0v3.031h-.059a7.175 7.175 0 0 0-7.167 7.167"/><path clip-path="url(#b)" d="M101.963 18.764a2.037 2.037 0 0 0-2.036 2.036v13.608h-7.524a.968.968 0 0 1-.966-.967V17.163c0-.533.433-.967.966-.967h1.96a2.036 2.036 0 1 0 0-4.072h-1.96a5.045 5.045 0 0 0-4.669 3.15 10.666 10.666 0 0 1-8.161-3.854l-5.072-6.097A14.726 14.726 0 0 0 63.148 0H41.935a6.279 6.279 0 0 0-6.272 6.272 6.28 6.28 0 0 0 6.272 6.272h8.674a2.035 2.035 0 1 0 0-4.072h-8.674a2.203 2.203 0 0 1-2.201-2.2c0-1.214.988-2.201 2.201-2.201h21.213c3.187 0 6.184 1.405 8.222 3.856l5.073 6.097a14.718 14.718 0 0 0 10.921 5.311v11.987h-7.472c-3.686 0-7.176-1.41-9.828-3.97L59.115 16.784a2.003 2.003 0 0 1-.081-2.782 1.995 1.995 0 0 1 2.808-.117l8.596 7.879a2.035 2.035 0 1 0 2.752-3.001l-8.597-7.879a6.072 6.072 0 0 0-8.55.357c-2.217 2.401-2.107 6.202.244 8.472l10.948 10.569a18.14 18.14 0 0 0 12.657 5.111h7.867a5.044 5.044 0 0 0 4.644 3.086h9.56a2.036 2.036 0 0 0 2.036-2.036V20.8a2.037 2.037 0 0 0-2.036-2.036M2.036 71.661a2.035 2.035 0 1 1 .001 4.07 2.035 2.035 0 0 1-.001-4.07"/></g></svg>